<svg width="24" height="27" viewBox="0 0 24 27" fill="none" xmlns="http://www.w3.org/2000/svg">
<path fill-rule="evenodd" clip-rule="evenodd" d="M12.5274 3.12945C12.5274 3.46695 12.2513 3.74309 11.9138 3.74309C11.5763 3.74309 11.3002 3.46695 11.3002 3.09877V0.858998C11.3002 0.521498 11.5763 0.245361 11.9138 0.245361C12.2513 0.245361 12.5274 0.521498 12.5274 0.858998V3.12945ZM7.71039 18.3783C7.83311 18.5624 8.01721 18.6545 8.23198 18.6545H15.5956C15.8104 18.6545 15.9945 18.5624 16.1172 18.3783C17.4365 16.4147 18.3263 13.6226 18.3263 11.4749C18.3263 7.609 15.4422 4.44877 11.9138 4.44877C8.38539 4.44877 5.5013 7.609 5.5013 11.4749C5.5013 13.6226 6.39107 16.4147 7.71039 18.3783ZM11.9138 5.67604C14.7672 5.67604 17.099 8.284 17.099 11.4749C17.099 13.3158 16.3627 15.6476 15.2581 17.4272H8.56948C7.46493 15.6476 6.72857 13.3158 6.72857 11.4749C6.72857 8.284 9.02971 5.67604 11.9138 5.67604ZM15.9331 20.9249V20.8329C15.9331 19.9124 15.1661 19.1454 14.2456 19.1454H9.5513C8.63084 19.1454 7.8638 19.9124 7.8638 20.8329V20.9249C7.8638 21.8454 8.63084 22.6124 9.5513 22.6124H14.2456C15.1968 22.6124 15.9331 21.8454 15.9331 20.9249ZM14.7058 20.9249C14.7058 21.1704 14.4911 21.3851 14.2456 21.3851H9.5513C9.30584 21.3851 9.09107 21.1704 9.09107 20.9249V20.8329C9.09107 20.5874 9.30584 20.3726 9.5513 20.3726H14.2456C14.4911 20.3726 14.7058 20.5874 14.7058 20.8329V20.9249ZM10.8706 23.2567H12.9263C13.8468 23.2567 14.6138 24.0238 14.6138 24.9442V25.0363C14.6138 25.9567 13.8468 26.7238 12.9263 26.7238H10.8706C9.95016 26.7238 9.18311 25.9567 9.18311 25.0363V24.9442C9.18311 24.0238 9.95016 23.2567 10.8706 23.2567ZM12.9263 25.5272C13.1718 25.5272 13.3865 25.3124 13.3865 25.067V24.9749C13.3865 24.7295 13.1718 24.5147 12.9263 24.5147H10.8706C10.6252 24.5147 10.4104 24.7295 10.4104 24.9749V25.067C10.4104 25.3124 10.6252 25.5272 10.8706 25.5272H12.9263ZM17.8661 6.22832C18.0195 6.22832 18.1729 6.16695 18.2956 6.04422L19.8911 4.44877C20.1365 4.20332 20.1365 3.83513 19.8911 3.58968C19.6456 3.34422 19.2774 3.34422 19.032 3.58968L17.4365 5.18513C17.1911 5.43059 17.1911 5.79877 17.4365 6.04422C17.5286 6.16695 17.7127 6.22832 17.8661 6.22832ZM20.2899 12.2113C19.9524 12.2113 19.6763 11.9351 19.6763 11.5976C19.6763 11.2601 19.9524 10.984 20.2899 10.984H22.5297C22.8672 10.984 23.1433 11.2601 23.1433 11.5976C23.1433 11.9351 22.8672 12.2113 22.5297 12.2113H20.2899ZM19.3695 19.759C19.5229 19.759 19.6763 19.6976 19.799 19.5749C20.0445 19.3295 20.0445 18.9613 19.799 18.7158L18.2036 17.1204C17.9581 16.8749 17.5899 16.8749 17.3445 17.1204C17.099 17.3658 17.099 17.734 17.3445 17.9795L18.9399 19.5749C19.0627 19.6976 19.2161 19.759 19.3695 19.759ZM6.29902 17.059C6.54448 17.3045 6.54448 17.6726 6.29902 17.9181L4.70357 19.5135C4.58084 19.6363 4.42743 19.6976 4.27402 19.6976C4.12061 19.6976 3.96721 19.6363 3.84448 19.5135C3.59902 19.2681 3.59902 18.8999 3.84448 18.6545L5.43993 17.059C5.68539 16.8135 6.05357 16.8135 6.29902 17.059ZM1.17516 12.1192H3.41493C3.75243 12.1192 4.02857 11.8431 4.02857 11.5056C4.02857 11.1681 3.75243 10.892 3.41493 10.892H1.17516C0.83766 10.892 0.561523 11.1681 0.561523 11.5056C0.561523 11.8431 0.83766 12.1192 1.17516 12.1192ZM5.93084 6.16695C5.77743 6.16695 5.62402 6.10559 5.5013 5.98286L3.90584 4.38741C3.66039 4.14195 3.66039 3.77377 3.90584 3.52832C4.1513 3.28286 4.51948 3.28286 4.76493 3.52832L6.36039 5.12377C6.60584 5.36923 6.60584 5.73741 6.36039 5.98286C6.23766 6.10559 6.08425 6.16695 5.93084 6.16695Z" fill="white"/>
</svg>
