<svg width="26" height="26" viewBox="0 0 26 26" fill="none" xmlns="http://www.w3.org/2000/svg">
<path fill-rule="evenodd" clip-rule="evenodd" d="M4.18361 3.86605C6.63934 1.41032 9.86585 0.182384 13.0888 0.182373C16.3118 0.182362 19.5383 1.41031 21.994 3.86605C26.9055 8.77753 26.9055 16.756 21.994 21.6675C17.0825 26.579 9.09509 26.579 4.18361 21.6675C-0.727874 16.7561 -0.727865 8.77752 4.18361 3.86605ZM21.1804 4.67074C18.9433 2.43368 16.0165 1.31787 13.0888 1.31788C10.1611 1.31789 7.2343 2.43368 4.99724 4.67074C0.523107 9.14487 0.523105 16.3887 4.99724 20.8628C9.47137 25.337 16.7063 25.337 21.1804 20.8628C25.6545 16.3888 25.6545 9.14487 21.1804 4.67074ZM13.0888 3.97335C12.9387 3.97347 12.7916 3.97478 12.6418 3.98229C12.6209 3.98114 12.6 3.98114 12.5792 3.98229C12.3747 4.00302 12.1969 4.13127 12.1126 4.31871C12.0284 4.50615 12.0505 4.72431 12.1707 4.89098C12.2909 5.05766 12.491 5.14753 12.6954 5.12673C14.7935 5.0216 16.9183 5.73751 18.516 7.33515C20.1137 8.93282 20.8296 11.0577 20.7244 13.1557C20.7096 13.4718 20.9538 13.74 21.2698 13.7548C21.5858 13.7696 21.854 13.5254 21.8689 13.2094C21.9891 10.8113 21.1658 8.35769 19.3296 6.52152C17.6082 4.80013 15.341 3.9715 13.0888 3.97335ZM10.0847 9.75815C10.9129 8.92993 11.999 8.51536 13.0888 8.51536C14.1787 8.51536 15.2648 8.92992 16.093 9.75815C17.7494 11.4146 17.7494 14.119 16.093 15.7754C14.4365 17.4319 11.7411 17.4319 10.0847 15.7754C8.42819 14.119 8.4282 11.4146 10.0847 9.75815ZM13.0888 9.65086C13.8834 9.65086 14.6787 9.96223 15.2883 10.5718C16.5074 11.7909 16.5074 13.7516 15.2883 14.9707C14.0692 16.1899 12.1084 16.1899 10.8893 14.9707C9.67023 13.7516 9.67023 11.7909 10.8893 10.5718C11.4989 9.96223 12.2942 9.65087 13.0888 9.65086ZM4.29984 12.3153C4.31302 12.0231 4.54438 11.7879 4.8363 11.7699C5.00057 11.7593 5.16146 11.8199 5.27786 11.9363C5.39426 12.0527 5.4549 12.2136 5.44428 12.3779C5.33905 14.4758 6.05512 16.6008 7.65271 18.1984C9.25047 19.7961 11.3753 20.512 13.4733 20.4069C13.6777 20.3957 13.8726 20.4944 13.9845 20.6658C14.0964 20.8373 14.1084 21.0555 14.0158 21.2381C13.9233 21.4207 13.7403 21.5401 13.5359 21.5513C11.1379 21.6715 8.68427 20.8393 6.84802 19.0031C5.01192 17.167 4.17956 14.7133 4.29984 12.3153Z" fill="white"/>
</svg>
