<svg width="26" height="26" viewBox="0 0 26 26" fill="none" xmlns="http://www.w3.org/2000/svg">
<path fill-rule="evenodd" clip-rule="evenodd" d="M4.18361 3.86605C6.63934 1.41032 9.86585 0.182384 13.0888 0.182373C16.3118 0.182362 19.5383 1.41031 21.994 3.86605C26.9055 8.77753 26.9055 16.756 21.994 21.6675C17.0825 26.579 9.09509 26.579 4.18361 21.6675C-0.727874 16.7561 -0.727865 8.77752 4.18361 3.86605ZM21.1804 4.67074C18.9433 2.43368 16.0165 1.31787 13.0888 1.31788C10.1611 1.31789 7.2343 2.43368 4.99724 4.67074C0.523107 9.14487 0.523105 16.3887 4.99724 20.8628C9.47137 25.337 16.7063 25.337 21.1804 20.8628C25.6545 16.3888 25.6545 9.14487 21.1804 4.67074ZM13.0888 3.97335C12.9387 3.97347 12.7916 3.97478 12.6418 3.98229C12.6209 3.98114 12.6 3.98114 12.5792 3.98229C12.3747 4.00302 12.1969 4.13127 12.1126 4.31871C12.0284 4.50615 12.0505 4.72431 12.1707 4.89098C12.2909 5.05766 12.491 5.14753 12.6954 5.12673C14.7935 5.0216 16.9183 5.73751 18.516 7.33515C20.1137 8.93282 20.8296 11.0577 20.7244 13.1557C20.7096 13.4718 20.9538 13.74 21.2698 13.7548C21.5858 13.7696 21.854 13.5254 21.8689 13.2094C21.9891 10.8113 21.1658 8.35769 19.3296 6.52152C17.6082 4.80013 15.341 3.9715 13.0888 3.97335ZM10.0847 9.75815C10.9129 8.92993 11.999 8.51536 13.0888 8.51536C14.1787 8.51536 15.2648 8.92992 16.093 9.75815C17.7494 11.4146 17.7494 14.119 16.093 15.7754C14.4365 17.4319 11.7411 17.4319 10.0847 15.7754C8.42819 14.119 8.4282 11.4146 10.0847 9.75815ZM13.0888 9.65086C13.8834 9.65086 14.6787 9.96223 15.2883 10.5718C16.5074 11.7909 16.5074 13.7516 15.2883 14.9707C14.0692 16.1899 12.1084 16.1899 10.8893 14.9707C9.67023 13.7516 9.67023 11.7909 10.8893 10.5718C11.4989 9.96223 12.2942 9.65087 13.0888 9.65086ZM4.29984 12.3153C4.31302 12.0231 4.54438 11.7879 4.8363 11.7699C5.00057 11.7593 5.16146 11.8199 5.27786 11.9363C5.39426 12.0527 5.4549 12.2136 5.44428 12.3779C5.33905 14.4758 6.05512 16.6008 7.65271 18.1984C9.25047 19.7961 11.3753 20.512 13.4733 20.4069C13.6777 20.3957 13.8726 20.4944 13.9845 20.6658C14.0964 20.8373 14.1084 21.0555 14.0158 21.2381C13.9233 21.4207 13.7403 21.5401 13.5359 21.5513C11.1379 21.6715 8.68427 20.8393 6.84802 19.0031C5.01192 17.167 4.17956 14.7133 4.29984 12.3153Z" fill="#9897AD"/>
<path d="M4.18361 3.86605L4.07754 3.75999L4.18361 3.86605ZM21.994 3.86605L21.888 3.97212L21.994 3.86605ZM21.994 21.6675L22.1001 21.7736L21.994 21.6675ZM4.18361 21.6675L4.28967 21.5615L4.18361 21.6675ZM13.0888 1.31788V1.46788V1.31788ZM21.1804 4.67074L21.0743 4.77681L21.1804 4.67074ZM4.99724 4.67074L5.1033 4.77681V4.77681L4.99724 4.67074ZM4.99724 20.8628L5.1033 20.7568H5.1033L4.99724 20.8628ZM21.1804 20.8628L21.0743 20.7568L21.1804 20.8628ZM12.6418 3.98229L12.6336 4.13206L12.6414 4.13249L12.6493 4.1321L12.6418 3.98229ZM13.0888 3.97335L13.0887 3.82335L13.0888 3.97335ZM12.5792 3.98229L12.571 3.83235L12.564 3.83305L12.5792 3.98229ZM12.1126 4.31871L12.2494 4.38021V4.38021L12.1126 4.31871ZM12.1707 4.89098L12.0491 4.97873V4.97873L12.1707 4.89098ZM12.6954 5.12673L12.6879 4.97672L12.6802 4.9775L12.6954 5.12673ZM18.516 7.33515L18.6221 7.22908V7.22908L18.516 7.33515ZM20.7244 13.1557L20.5746 13.1482L20.5746 13.1487L20.7244 13.1557ZM21.2698 13.7548L21.2768 13.6049L21.2698 13.7548ZM21.8689 13.2094L21.719 13.2019L21.719 13.2023L21.8689 13.2094ZM19.3296 6.52152L19.4357 6.41546V6.41546L19.3296 6.52152ZM13.0888 8.51536V8.36536V8.51536ZM10.0847 9.75815L9.97858 9.65209L10.0847 9.75815ZM16.093 15.7754L15.9869 15.6694L15.9869 15.6694L16.093 15.7754ZM10.0847 15.7754L10.1907 15.6694L10.1907 15.6694L10.0847 15.7754ZM15.2883 10.5718L15.1822 10.6778L15.2883 10.5718ZM13.0888 9.65086L13.0888 9.80086L13.0888 9.65086ZM15.2883 14.9707L15.1822 14.8647L15.1822 14.8647L15.2883 14.9707ZM10.8893 14.9707L10.9954 14.8647L10.9954 14.8647L10.8893 14.9707ZM10.8893 10.5718L10.7833 10.4657L10.8893 10.5718ZM4.8363 11.7699L4.84554 11.9196L4.84597 11.9196L4.8363 11.7699ZM4.29984 12.3153L4.44965 12.3228L4.44969 12.322L4.29984 12.3153ZM5.27786 11.9363L5.38392 11.8302L5.38392 11.8302L5.27786 11.9363ZM5.44428 12.3779L5.29458 12.3682L5.29447 12.3703L5.44428 12.3779ZM7.65271 18.1984L7.54664 18.3045L7.54664 18.3045L7.65271 18.1984ZM13.4733 20.4069L13.4808 20.5567L13.4815 20.5566L13.4733 20.4069ZM13.9845 20.6658L13.8589 20.7478H13.8589L13.9845 20.6658ZM13.5359 21.5513L13.5434 21.7011L13.544 21.7011L13.5359 21.5513ZM6.84802 19.0031L6.74195 19.1092L6.74195 19.1092L6.84802 19.0031ZM13.0888 0.032373C9.82782 0.0323846 6.56262 1.27491 4.07754 3.75999L4.28967 3.97212C6.71606 1.54573 9.90388 0.332384 13.0888 0.332373L13.0888 0.032373ZM22.1001 3.75999C19.615 1.2749 16.3498 0.0323615 13.0888 0.032373L13.0888 0.332373C16.2738 0.332362 19.4616 1.54572 21.888 3.97212L22.1001 3.75999ZM22.1001 21.7736C27.0701 16.8035 27.0702 8.73005 22.1001 3.75999L21.888 3.97212C26.7409 8.82502 26.7409 16.7085 21.888 21.5615L22.1001 21.7736ZM4.07754 21.7736C9.0476 26.7436 17.13 26.7436 22.1001 21.7736L21.888 21.5615C17.0351 26.4143 9.14258 26.4144 4.28967 21.5615L4.07754 21.7736ZM4.07754 3.75999C-0.892509 8.73004 -0.892518 16.8035 4.07754 21.7736L4.28967 21.5615C-0.563229 16.7086 -0.563221 8.82501 4.28967 3.97212L4.07754 3.75999ZM13.0888 1.46788C15.9783 1.46787 18.8665 2.56899 21.0743 4.77681L21.2865 4.56467C19.0201 2.29836 16.0547 1.16787 13.0888 1.16788V1.46788ZM5.1033 4.77681C7.31111 2.569 10.1993 1.46788 13.0888 1.46788V1.16788C10.123 1.16789 7.15749 2.29836 4.89117 4.56468L5.1033 4.77681ZM5.1033 20.7568C0.687749 16.3412 0.687752 9.19236 5.1033 4.77681L4.89117 4.56467C0.358462 9.09738 0.35846 16.4362 4.89117 20.9689L5.1033 20.7568ZM21.0743 20.7568C16.6588 25.1723 9.51886 25.1724 5.1033 20.7568L4.89117 20.9689C9.42388 25.5017 16.7538 25.5016 21.2865 20.9689L21.0743 20.7568ZM21.0743 4.77681C25.4899 9.19236 25.4899 16.3413 21.0743 20.7568L21.2865 20.9689C25.8192 16.4362 25.8192 9.09738 21.2865 4.56467L21.0743 4.77681ZM12.6493 4.1321C12.7953 4.12478 12.9393 4.12347 13.0889 4.12335L13.0887 3.82335C12.938 3.82347 12.788 3.82477 12.6343 3.83247L12.6493 4.1321ZM12.5874 4.13206C12.6028 4.13122 12.6182 4.13122 12.6336 4.13206L12.65 3.83251C12.6237 3.83107 12.5973 3.83107 12.571 3.83251L12.5874 4.13206ZM12.2494 4.38021C12.3117 4.24165 12.4432 4.14685 12.5943 4.13152L12.564 3.83305C12.3063 3.85919 12.082 4.02089 11.9758 4.25721L12.2494 4.38021ZM12.2924 4.80323C12.2035 4.68003 12.1871 4.51877 12.2494 4.38021L11.9758 4.25721C11.8696 4.49354 11.8975 4.76859 12.0491 4.97873L12.2924 4.80323ZM12.6802 4.9775C12.5291 4.99287 12.3813 4.92644 12.2924 4.80323L12.0491 4.97873C12.2006 5.18887 12.4528 5.30218 12.7106 5.27596L12.6802 4.9775ZM18.6221 7.22908C16.9921 5.59918 14.8249 4.86984 12.6879 4.97692L12.7029 5.27654C14.762 5.17337 16.8445 5.87583 18.4099 7.44122L18.6221 7.22908ZM20.8742 13.1632C20.9814 11.0262 20.252 8.85901 18.6221 7.22908L18.4099 7.44122C19.9753 9.00663 20.6779 11.0892 20.5746 13.1482L20.8742 13.1632ZM21.2768 13.6049C21.0436 13.594 20.8633 13.396 20.8742 13.1627L20.5746 13.1487C20.5559 13.5475 20.864 13.8859 21.2628 13.9046L21.2768 13.6049ZM21.719 13.2023C21.7081 13.4356 21.5101 13.6159 21.2768 13.6049L21.2628 13.9046C21.6616 13.9233 22 13.6152 22.0187 13.2164L21.719 13.2023ZM19.2235 6.62759C21.0274 8.43147 21.8374 10.8428 21.719 13.2019L22.0187 13.2169C22.1409 10.7799 21.3041 8.2839 19.4357 6.41546L19.2235 6.62759ZM13.0889 4.12335C15.3045 4.12153 17.5325 4.93654 19.2235 6.62759L19.4357 6.41546C17.6839 4.66373 15.3775 3.82148 13.0887 3.82335L13.0889 4.12335ZM13.0888 8.36536C11.9609 8.36536 10.8361 8.79456 9.97858 9.65209L10.1907 9.86422C10.9896 9.0653 12.0371 8.66536 13.0888 8.66536V8.36536ZM16.199 9.65209C15.3415 8.79456 14.2168 8.36536 13.0888 8.36536V8.66536C14.1406 8.66536 15.188 9.06529 15.9869 9.86422L16.199 9.65209ZM16.199 15.8815C17.9141 14.1665 17.9141 11.3671 16.199 9.65209L15.9869 9.86422C17.5848 11.4621 17.5848 14.0715 15.9869 15.6694L16.199 15.8815ZM9.97858 15.8815C11.6936 17.5965 14.484 17.5965 16.199 15.8815L15.9869 15.6694C14.389 17.2673 11.7886 17.2673 10.1907 15.6694L9.97858 15.8815ZM9.97858 9.65209C8.26355 11.3671 8.26354 14.1665 9.97858 15.8815L10.1907 15.6694C8.59283 14.0715 8.59284 11.4621 10.1907 9.86422L9.97858 9.65209ZM15.3944 10.4657C14.7563 9.82767 13.9227 9.50086 13.0888 9.50086L13.0888 9.80086C13.8441 9.80086 14.6012 10.0968 15.1822 10.6778L15.3944 10.4657ZM15.3944 15.0768C16.672 13.7991 16.672 11.7434 15.3944 10.4657L15.1822 10.6778C16.3428 11.8384 16.3428 13.7042 15.1822 14.8647L15.3944 15.0768ZM10.7833 15.0768C12.061 16.3545 14.1167 16.3545 15.3944 15.0768L15.1822 14.8647C14.0217 16.0252 12.1559 16.0252 10.9954 14.8647L10.7833 15.0768ZM10.7833 10.4657C9.50558 11.7434 9.50559 13.7991 10.7833 15.0768L10.9954 14.8647C9.83488 13.7042 9.83487 11.8384 10.9954 10.6778L10.7833 10.4657ZM13.0888 9.50086C12.255 9.50087 11.4213 9.82767 10.7833 10.4657L10.9954 10.6778C11.5765 10.0968 12.3335 9.80087 13.0888 9.80086L13.0888 9.50086ZM4.82706 11.6202C4.45863 11.6429 4.16663 11.9398 4.14999 12.3085L4.44969 12.322C4.45942 12.1064 4.63014 11.9329 4.84554 11.9196L4.82706 11.6202ZM5.38392 11.8302C5.23701 11.6833 5.03396 11.6068 4.82663 11.6202L4.84597 11.9196C4.96719 11.9117 5.0859 11.9565 5.17179 12.0424L5.38392 11.8302ZM5.59397 12.3875C5.60737 12.1802 5.53083 11.9771 5.38392 11.8302L5.17179 12.0424C5.25768 12.1283 5.30243 12.247 5.2946 12.3682L5.59397 12.3875ZM7.75877 18.0924C6.19344 16.527 5.49082 14.4443 5.5941 12.3854L5.29447 12.3703C5.18729 14.5073 5.9168 16.6747 7.54664 18.3045L7.75877 18.0924ZM13.4658 20.257C11.4068 20.3603 9.32428 19.6578 7.75877 18.0924L7.54664 18.3045C9.17666 19.9345 11.3438 20.6638 13.4808 20.5567L13.4658 20.257ZM14.1101 20.5839C13.9689 20.3675 13.723 20.2429 13.4651 20.2571L13.4815 20.5566C13.6324 20.5484 13.7763 20.6212 13.8589 20.7478L14.1101 20.5839ZM14.1496 21.3059C14.2664 21.0754 14.2513 20.8002 14.1101 20.5839L13.8589 20.7478C13.9415 20.8744 13.9503 21.0355 13.882 21.1703L14.1496 21.3059ZM13.544 21.7011C13.802 21.687 14.0329 21.5364 14.1496 21.3059L13.882 21.1703C13.8137 21.3051 13.6786 21.3933 13.5277 21.4015L13.544 21.7011ZM6.74195 19.1092C8.61023 20.9774 11.1061 21.8233 13.5434 21.7011L13.5284 21.4015C11.1698 21.5197 8.7583 20.7012 6.95408 18.8971L6.74195 19.1092ZM4.15003 12.3078C4.02778 14.7451 4.87383 17.2411 6.74195 19.1092L6.95408 18.8971C5.15002 17.093 4.33135 14.6814 4.44965 12.3228L4.15003 12.3078Z" fill="#9897AD"/>
</svg>
