<svg width="20" height="19" viewBox="0 0 20 19" fill="none" xmlns="http://www.w3.org/2000/svg">
<path d="M4.50726 11.5H6.05C6.10703 11.5 6.1549 11.4882 6.20037 11.4653C6.27751 11.4265 6.349 11.3807 6.41542 11.3276L11.9964 5.79645C11.9966 5.79632 11.9967 5.79619 11.9968 5.79606C11.9975 5.79534 11.9981 5.79474 11.9985 5.79426C11.9996 5.79307 11.9998 5.79263 11.9996 5.79296C11.9994 5.79328 11.9991 5.79374 11.9989 5.79426C11.9987 5.79457 11.9985 5.7949 11.9984 5.79523L4.50726 11.5ZM4.50726 11.5C4.50617 11.499 4.50494 11.4978 4.50355 11.4964C4.50217 11.4951 4.50099 11.4938 4.5 11.4927V9.9515C4.50043 9.89315 4.51268 9.84394 4.53573 9.79758C4.57348 9.72165 4.61868 9.65107 4.67165 9.58531L10.2036 4.00356C10.2037 4.00343 10.2038 4.00331 10.2039 4.00319C10.2047 4.00247 10.2053 4.00191 10.2057 4.00148C10.206 4.00143 10.2063 4.00137 10.2066 4.00131C10.2094 4.0008 10.2153 4 10.225 4C10.2347 4 10.2406 4.0008 10.2434 4.00131C10.2437 4.00137 10.244 4.00143 10.2443 4.00148C10.2448 4.00198 10.2456 4.00266 10.2464 4.00356L11.9964 5.75356C11.9973 5.75445 11.998 5.75518 11.9985 5.75574L4.50726 11.5ZM4 16H18C18.5493 16.0007 19.02 15.805 19.412 15.413C19.804 15.021 20 14.55 20 14L4 16ZM4 16L1.7 18.3M4 16L1.7 18.3M1.7 18.3C1.38334 18.6167 1.02067 18.6877 0.612002 18.513M1.7 18.3L0.612002 18.513M0.612002 18.513C0.203335 18.3383 -0.000665038 18.0257 0 17.575L0.612002 18.513ZM15 11.5H9.70711L10.7071 10.5L15 10.5L15.0012 10.5C15.1569 10.4996 15.2647 10.5468 15.3584 10.6406C15.4522 10.7343 15.5 10.8429 15.5 11L15.5 11.0012C15.5004 11.1569 15.4532 11.2647 15.3594 11.3584C15.2657 11.4522 15.1572 11.5 15 11.5ZM0.500002 17.5757V17.575V2C0.500002 1.58379 0.642485 1.23963 0.941555 0.940555C1.24061 0.641503 1.58424 0.499498 1.99939 0.500002H2H18C18.4162 0.500002 18.7604 0.642485 19.0594 0.941555C19.3585 1.24061 19.5005 1.58424 19.5 1.99939V2V14C19.5 14.4162 19.3575 14.7604 19.0584 15.0594C18.7594 15.3585 18.4158 15.5005 18.0006 15.5H18H4H3.79289L3.64645 15.6464L1.34645 17.9464C1.24333 18.0496 1.1592 18.0874 1.09444 18.1001C1.03001 18.1127 0.939616 18.1093 0.808509 18.0532C0.677454 17.9972 0.609645 17.9331 0.571254 17.8743C0.532544 17.815 0.499782 17.7242 0.500002 17.5757ZM1.5 15.175V16.3821L2.35355 15.5286L3.38211 14.5H18H18.5V14V2V1.5H18H2H1.5V2V15.175ZM4.49912 11.5C4.49929 11.5 4.49955 11.5001 4.4999 11.5001C4.49995 11.5005 4.49998 11.5007 4.5 11.5009C4.50002 11.501 4.50003 11.5011 4.50003 11.5011C4.50003 11.5011 4.5 11.5008 4.5 11.5C4.49887 11.5 4.49862 11.4999 4.49912 11.5Z" stroke="#087592"/>
</svg>
