<svg width="20" height="20" viewBox="0 0 20 20" fill="none" xmlns="http://www.w3.org/2000/svg">
<path d="M8.5 12.6969H15C15.2833 12.6969 15.521 12.6009 15.713 12.4089C15.905 12.2169 16.0007 11.9796 16 11.6969C16 11.4136 15.904 11.1759 15.712 10.9839C15.52 10.7919 15.2827 10.6962 15 10.6969H10.5L8.5 12.6969ZM4.5 12.6969H6.05C6.18333 12.6969 6.30833 12.6676 6.425 12.6089C6.54167 12.5502 6.65 12.4796 6.75 12.3969L12.35 6.8469C12.45 6.7469 12.5 6.6219 12.5 6.4719C12.5 6.3219 12.45 6.1969 12.35 6.0969L10.6 4.3469C10.5 4.2469 10.375 4.1969 10.225 4.1969C10.075 4.1969 9.95 4.2469 9.85 4.3469L4.3 9.9469C4.21667 10.0469 4.146 10.1552 4.088 10.2719C4.03 10.3886 4.00067 10.5136 4 10.6469V12.1969C4 12.3302 4.05 12.4469 4.15 12.5469C4.25 12.6469 4.36667 12.6969 4.5 12.6969ZM1.62866e-06 18.2719V2.6969C1.62866e-06 2.1469 0.196002 1.6759 0.588002 1.2839C0.980002 0.891901 1.45067 0.696234 2 0.696901H18C18.55 0.696901 19.021 0.892901 19.413 1.2849C19.805 1.6769 20.0007 2.14757 20 2.6969V14.6969C20 15.2469 19.804 15.7179 19.412 16.1099C19.02 16.5019 18.5493 16.6976 18 16.6969H4L1.7 18.9969C1.38334 19.3136 1.02067 19.3846 0.612002 19.2099C0.203335 19.0352 -0.000665038 18.7226 1.62866e-06 18.2719ZM2 15.8719L3.175 14.6969H18V2.6969H2V15.8719Z" fill="white"/>
</svg>
