<svg width="16" height="27" viewBox="0 0 16 27" fill="none" xmlns="http://www.w3.org/2000/svg">
<path d="M14.6273 16.6414C14.4102 16.2942 13.903 16.1625 13.4946 16.3469C13.0861 16.5314 12.931 16.9624 13.1481 17.3094C13.5907 18.0173 13.8248 18.8186 13.8248 19.6266C13.8248 20.9708 13.2014 22.2286 12.0694 23.168C10.938 24.107 9.44189 24.6058 7.85865 24.5749C4.72068 24.5119 2.1711 22.289 2.17529 19.6197C2.17822 17.7364 3.41331 16.0421 5.39836 15.198C5.68204 15.0774 5.86114 14.831 5.86114 14.5614V3.87383C5.86114 3.07417 6.62672 2.42358 7.56774 2.42358H8.43216C9.37317 2.42358 10.1388 3.07417 10.1388 3.87383V14.1178C10.1388 14.5109 10.5138 14.8296 10.9764 14.8296C11.4389 14.8296 11.814 14.5109 11.814 14.1178V13.2652H13.8299C14.2925 13.2652 14.6676 12.9466 14.6676 12.5534C14.6676 12.1603 14.2925 11.8416 13.8299 11.8416H11.814V10.7335H12.6064C13.069 10.7335 13.444 10.4149 13.444 10.0217C13.444 9.62861 13.069 9.30991 12.6064 9.30991H11.814V8.20186H13.8299C14.2925 8.20186 14.6676 7.8832 14.6676 7.49004C14.6676 7.09687 14.2925 6.77822 13.8299 6.77822H11.814V5.67022H12.6064C13.069 5.67022 13.444 5.35156 13.444 4.9584C13.444 4.56523 13.069 4.24658 12.6064 4.24658H11.814V3.87383C11.814 2.28921 10.297 1 8.43221 1H7.56779C5.70307 1 4.18597 2.28921 4.18597 3.87383V14.1389C1.90293 15.2822 0.503627 17.3428 0.500007 19.6179C0.494548 23.0548 3.77789 25.9171 7.81901 25.9981C7.88026 25.9994 7.94105 26 8.00213 26C9.9727 26 11.8268 25.3594 13.24 24.1865C14.6974 22.9769 15.5 21.3575 15.5 19.6265C15.5 18.5865 15.1982 17.5542 14.6273 16.6414Z" fill="white" stroke="#9897AD" stroke-width="0.2"/>
</svg>
