<svg width="20" height="20" viewBox="0 0 20 20" fill="none" xmlns="http://www.w3.org/2000/svg">
<rect width="20" height="20" rx="4" fill="#F7665E"/>
<path d="M7.91675 12.0834L7.91675 9.58337" stroke="white" stroke-linecap="round"/>
<path d="M12.0833 12.0834L12.0833 9.58337" stroke="white" stroke-linecap="round"/>
<path d="M2.5 5.41663H17.5V5.41663C16.6463 5.41663 16.2194 5.41663 15.8788 5.54481C15.3398 5.74769 14.9144 6.1731 14.7115 6.71213C14.5833 7.05271 14.5833 7.47957 14.5833 8.33329V12.25C14.5833 14.1356 14.5833 15.0784 13.9975 15.6642C13.4118 16.25 12.469 16.25 10.5833 16.25H9.41667C7.53105 16.25 6.58824 16.25 6.00245 15.6642C5.41667 15.0784 5.41667 14.1356 5.41667 12.25V8.33329C5.41667 7.47957 5.41667 7.05271 5.28848 6.71213C5.0856 6.1731 4.6602 5.74769 4.12117 5.54481C3.78058 5.41663 3.35372 5.41663 2.5 5.41663V5.41663Z" stroke="white" stroke-linecap="round"/>
<path d="M7.91659 2.91691C7.91659 2.91691 8.33325 2.08337 9.99992 2.08337C11.6666 2.08337 12.0833 2.91671 12.0833 2.91671" stroke="white" stroke-linecap="round"/>
</svg>
