<svg width="16" height="16" viewBox="0 0 16 16" fill="none" xmlns="http://www.w3.org/2000/svg">
<path d="M8 0.5C8.92826 0.5 9.8185 0.868749 10.4749 1.52513C11.1313 2.1815 11.5 3.07174 11.5 4C11.5 4.92826 11.1313 5.8185 10.4749 6.47487C9.8185 7.13125 8.92826 7.5 8 7.5C7.07174 7.5 6.1815 7.13125 5.52513 6.47487C4.86875 5.8185 4.5 4.92826 4.5 4C4.5 3.07174 4.86875 2.1815 5.52513 1.52513C6.1815 0.868749 7.07174 0.5 8 0.5ZM8 10.5C10.1493 10.5 12.0695 10.9363 13.4339 11.6185C14.8281 12.3155 15.5 13.1863 15.5 14V15.5H0.5V14C0.5 13.1863 1.17194 12.3155 2.56611 11.6185C3.9305 10.9363 5.85073 10.5 8 10.5Z" stroke="#087592"/>
</svg>
