<svg width="24" height="23" viewBox="0 0 24 23" fill="none" xmlns="http://www.w3.org/2000/svg">
<path d="M22.8709 4.85363C22.8223 4.74304 22.7524 4.64313 22.6651 4.55963C22.5778 4.47613 22.4748 4.41068 22.3622 4.36704C22.2495 4.32477 22.1292 4.30685 22.0091 4.31448C21.889 4.3221 21.7719 4.35509 21.6655 4.41127C21.5751 4.44574 21.4951 4.50287 21.4332 4.57716L17.1202 8.87912L15.0411 8.45887L14.6209 6.37978L18.9228 2.06676C18.9971 2.00485 19.0543 1.92488 19.0887 1.83452C19.1449 1.72811 19.1779 1.611 19.1855 1.49091C19.1931 1.37081 19.1752 1.25047 19.133 1.13781C19.0893 1.02516 19.0239 0.922243 18.9404 0.834946C18.8569 0.74765 18.757 0.677695 18.6464 0.629091C17.1787 0.00827009 15.5585 -0.157883 13.9954 0.152123C12.4322 0.46213 10.9981 1.23403 9.87843 2.36799C8.75877 3.50194 8.00512 4.94577 7.71497 6.5127C7.42481 8.07964 7.61151 9.69759 8.25089 11.1573L1.58231 16.919C1.57125 16.9301 1.54913 16.9411 1.53807 16.9633C1.20905 17.291 0.947976 17.6805 0.769838 18.1094C0.5917 18.5383 0.5 18.9982 0.5 19.4626C0.5 19.927 0.5917 20.3869 0.769838 20.8158C0.947976 21.2447 1.20905 21.6342 1.53807 21.9619C1.86584 22.291 2.25534 22.552 2.68424 22.7302C3.11314 22.9083 3.57299 23 4.03741 23C4.50183 23 4.96168 22.9083 5.39058 22.7302C5.81948 22.552 6.20898 22.291 6.53675 21.9619C6.55887 21.9509 6.56992 21.9288 6.58098 21.9177L12.3427 15.2491C13.8024 15.8885 15.4204 16.0752 16.9873 15.785C18.5542 15.4949 19.9981 14.7412 21.132 13.6216C22.266 12.5019 23.0379 11.0678 23.3479 9.50463C23.6579 7.9415 23.4917 6.32131 22.8709 4.85363ZM19.9182 12.3406C18.9689 13.2843 17.7403 13.8963 16.4153 14.0856C15.0902 14.2749 13.7394 14.0313 12.5639 13.3912C12.3846 13.2891 12.1755 13.252 11.9719 13.2862C11.7684 13.3205 11.583 13.424 11.4469 13.5792L5.26496 20.7344C4.92837 21.0394 4.48739 21.2032 4.03331 21.192C3.57924 21.1809 3.14686 20.9955 2.82568 20.6743C2.50451 20.3531 2.31914 19.9208 2.30796 19.4667C2.29678 19.0126 2.46064 18.5716 2.76562 18.235L9.9208 12.0531C10.0743 11.9209 10.1778 11.7401 10.214 11.5408C10.2502 11.3416 10.217 11.1359 10.1199 10.9582C9.55545 9.93294 9.29255 8.76892 9.36153 7.6006C9.4305 6.43227 9.82854 5.30728 10.5097 4.35554C11.1908 3.4038 12.1273 2.66413 13.2109 2.22196C14.2945 1.77979 15.4811 1.65314 16.6336 1.85664L13.0394 5.46188C12.9367 5.56445 12.8607 5.69073 12.8183 5.8296C12.7758 5.96846 12.7682 6.11563 12.7961 6.25813L13.4155 9.38783C13.4546 9.55761 13.5406 9.71297 13.6638 9.83617C13.787 9.95937 13.9424 10.0454 14.1122 10.0845L17.2419 10.7039C17.3844 10.7318 17.5315 10.7242 17.6704 10.6817C17.8093 10.6393 17.9356 10.5633 18.0381 10.4606L21.6434 6.86637C21.8198 7.85033 21.755 8.86241 21.4546 9.81583C21.1541 10.7693 20.6269 11.6356 19.9182 12.3406Z" fill="white"/>
</svg>
